<svg width="41" height="49" viewBox="0 0 41 49" fill="none" xmlns="http://www.w3.org/2000/svg">
<path d="M18.8557 1.68541C19.6605 1.08028 20.6446 0.832228 21.8264 1.11803C23.8735 1.6131 24.4624 3.34908 24.8577 4.61315C25.3012 6.03177 25.5739 7.02769 26.4612 7.61998C26.7797 7.83254 27.1939 7.93792 27.7434 7.96276C28.317 7.98866 28.8818 7.92703 29.5618 7.88854C30.168 7.85422 30.9276 7.8329 31.5959 8.07213C32.3719 8.35002 32.9431 8.9436 33.1809 9.87975C33.3958 10.7258 33.2096 11.4479 32.801 12.036C32.4367 12.5605 31.9057 12.9593 31.4905 13.2626C31.0264 13.6015 30.6573 13.8547 30.3557 14.1571C30.0758 14.4378 29.9276 14.6938 29.8792 14.9794C29.8081 15.3991 29.8652 15.6506 29.9436 15.8124C30.0248 15.9799 30.1777 16.1521 30.4641 16.328C31.0893 16.7119 32.0589 16.9502 33.3196 17.2225C34.4955 17.4766 35.8968 17.7572 37.0696 18.2889C38.2751 18.8356 39.3939 19.7167 39.8137 21.244C40.0771 22.2024 40.0648 23.088 39.7551 23.8866C39.4489 24.6762 38.8922 25.2784 38.2493 25.7489C37.0104 26.6554 35.2243 27.2248 33.5852 27.7421C31.8617 28.286 30.2264 28.7906 28.9651 29.535C27.7408 30.2577 27.0242 31.1139 26.9006 32.3241C26.8237 33.0785 27.1136 33.6862 27.4758 34.6434C27.813 35.5347 28.1856 36.7314 27.4436 38.0653C27.1117 38.662 26.5788 39.1105 25.845 39.1503C25.2157 39.1843 24.6511 38.897 24.2327 38.619C23.3878 38.0577 22.4635 37.0576 21.6809 36.2421C21.2675 35.8112 20.8767 35.4108 20.5061 35.076C20.1285 34.7349 19.8196 34.5062 19.5774 34.3837C19.4715 34.3301 19.4045 34.3101 19.3684 34.3026C19.334 34.3414 19.2721 34.4303 19.1965 34.6131C18.8384 35.4804 18.6413 36.6119 18.4797 37.9325C18.3246 39.2007 18.2002 40.6723 17.9651 41.9999C17.7286 43.3352 17.3567 44.6938 16.6213 45.7831C15.8538 46.9198 14.7175 47.7213 13.0989 47.9442C12.2104 48.0665 11.402 47.9898 10.6887 47.6903C9.97117 47.389 9.42132 46.8921 9.0061 46.2909C8.2066 45.1332 7.86757 43.5319 7.68091 41.9393C7.49257 40.3323 7.44075 38.5032 7.33813 36.869C7.23223 35.1824 7.0726 33.6816 6.70044 32.5301C6.3293 31.382 5.87886 30.8193 5.49048 30.5184C5.10032 30.2162 4.66754 30.0947 4.15161 30.0194C4.02124 30.0004 3.89057 29.9847 3.75122 29.9686C3.61664 29.9531 3.46745 29.9358 3.32349 29.9159C3.0424 29.8769 2.69788 29.8164 2.36841 29.6776C2.01756 29.5298 1.67402 29.2898 1.41724 28.9012C1.16907 28.5256 1.05126 28.0853 1.01294 27.6161C0.86441 25.7949 2.03863 24.7715 2.89575 24.0624C3.8478 23.2747 4.48454 22.7852 4.68872 21.9432C5.03829 20.5007 4.84756 19.7005 4.66528 17.9286C4.53253 16.638 3.84376 15.6872 3.09985 14.4081C2.39051 13.1883 1.68118 11.6905 2.40063 9.77428C2.90903 8.42051 3.82277 7.67794 4.97681 7.40416C6.01934 7.15686 7.19493 7.31115 8.24927 7.4901C9.37665 7.68145 10.419 7.91185 11.4729 7.98326C12.5027 8.053 13.3991 7.95395 14.1653 7.56139C14.7843 7.2442 15.2944 6.72499 15.7747 6.04967C16.2718 5.35056 16.6555 4.61262 17.136 3.80651C17.5811 3.05971 18.1189 2.23944 18.8557 1.68541Z" fill="#FF7700" stroke="#FF7700" stroke-width="2"/>
</svg>
