<svg width="192" height="51" viewBox="0 0 192 51" fill="none" xmlns="http://www.w3.org/2000/svg">
<path d="M19.5552 2.28598C20.4798 1.59075 21.6174 1.31193 22.9438 1.63266C25.289 2.19983 25.945 4.21509 26.3354 5.46371C26.7983 6.94418 27.03 7.73074 27.7388 8.20395C27.9511 8.34567 28.2624 8.43997 28.7661 8.46274C29.3058 8.48713 29.8216 8.4298 30.5337 8.3895C31.1351 8.35545 31.9891 8.32399 32.7642 8.60141C33.701 8.93674 34.3878 9.66326 34.6655 10.7567C34.9187 11.7535 34.6964 12.6231 34.2114 13.3211C33.7929 13.9236 33.1954 14.3666 32.7856 14.6659C32.3024 15.0188 31.9768 15.2434 31.7104 15.5106C31.4764 15.7453 31.3982 15.9119 31.3726 16.0633C31.3151 16.4024 31.3698 16.5446 31.394 16.5946C31.4226 16.6534 31.4965 16.7612 31.7261 16.9022C32.2643 17.2327 33.1421 17.456 34.4253 17.7332C35.5814 17.983 37.0433 18.275 38.2759 18.8338C39.5576 19.415 40.8227 20.3879 41.2964 22.1112C41.5824 23.1517 41.577 24.1496 41.2212 25.0672C40.8706 25.9713 40.2391 26.6439 39.5444 27.1522C38.2257 28.1171 36.3518 28.7086 34.7358 29.2186C32.9931 29.7686 31.4206 30.2566 30.2192 30.9657C29.0736 31.6419 28.4995 32.3797 28.3979 33.3748C28.336 33.9824 28.5608 34.4542 28.9438 35.4666C29.2894 36.3799 29.7377 37.7672 28.8804 39.3084C28.4892 40.0114 27.8222 40.5977 26.8726 40.6493C26.0796 40.6922 25.4021 40.3319 24.9565 40.036C24.0534 39.436 23.0814 38.3813 22.3208 37.5887C21.9072 37.1577 21.5274 36.7688 21.1714 36.4471C20.9414 36.2393 20.7485 36.087 20.5923 35.9784C20.3035 36.7563 20.126 37.7675 19.9761 38.993C19.8244 40.2332 19.6956 41.7423 19.4575 43.0868C19.2173 44.4429 18.8305 45.885 18.0356 47.0623C17.1924 48.3113 15.933 49.1962 14.1665 49.4393C13.2097 49.5709 12.3084 49.4925 11.4956 49.1512C10.6763 48.8072 10.0555 48.2415 9.59521 47.575C8.72089 46.3091 8.37292 44.6007 8.18506 42.9979C7.99464 41.3733 7.94035 39.5087 7.83936 37.9002C7.73343 36.2133 7.57602 34.769 7.2251 33.6834C6.876 32.6035 6.47338 32.1374 6.18506 31.9139C5.89402 31.6884 5.56005 31.5837 5.07959 31.5135C4.95732 31.4957 4.83306 31.4818 4.69385 31.4657C4.56169 31.4504 4.40546 31.4319 4.25439 31.411C3.96292 31.3706 3.56579 31.3035 3.17432 31.1385C2.75057 30.9599 2.32158 30.6625 2.00049 30.1766C1.69231 29.7101 1.55797 29.1816 1.51514 28.6571C1.34369 26.5572 2.72375 25.3831 3.57764 24.6766C4.57381 23.8524 5.0459 23.4718 5.20264 22.825C5.52696 21.4866 5.35493 20.7922 5.16846 18.9793C5.0497 17.8251 4.444 16.9952 3.66748 15.66C2.94267 14.4137 2.12967 12.7382 2.93311 10.5985C3.49846 9.09304 4.54157 8.23103 5.86182 7.91782C7.01479 7.64435 8.28387 7.81876 9.3335 7.99692C10.4925 8.19365 11.486 8.41507 12.5063 8.48422C13.4909 8.55094 14.285 8.45164 14.938 8.11703C15.4574 7.85088 15.9103 7.4013 16.3667 6.75961C16.8484 6.08219 17.2077 5.38758 17.7065 4.55063C18.1523 3.80266 18.7327 2.90457 19.5552 2.28598Z" fill="white" stroke="white" stroke-width="3"/>
<path d="M58.1255 36.9998H55.8982L64.3641 13.7271H66.6369L75.1028 36.9998H72.8755L65.58 16.4885H65.4209L58.1255 36.9998ZM59.7278 28.0794H71.2732V29.9885H59.7278V28.0794ZM94.0999 20.9998C93.8878 20.2271 93.5772 19.5036 93.1681 18.8294C92.759 18.1476 92.2514 17.5529 91.6454 17.0453C91.0469 16.5301 90.3537 16.1286 89.5658 15.8408C88.7855 15.5529 87.9143 15.4089 86.9522 15.4089C85.437 15.4089 84.081 15.8029 82.884 16.5908C81.687 17.3786 80.7401 18.515 80.0431 19.9998C79.3537 21.4847 79.009 23.2726 79.009 25.3635C79.009 27.4468 79.3575 29.2309 80.0545 30.7158C80.7514 32.2006 81.706 33.3408 82.9181 34.1362C84.1378 34.9241 85.5317 35.318 87.0999 35.318C88.5317 35.318 89.7969 34.9998 90.8954 34.3635C91.9939 33.7271 92.8499 32.818 93.4636 31.6362C94.0848 30.4544 94.3878 29.0491 94.3726 27.4203L95.0545 27.6362H87.5999V25.7271H96.4408V27.6362C96.4408 29.6211 96.0393 31.337 95.2363 32.7839C94.4333 34.2309 93.331 35.3483 91.9295 36.1362C90.528 36.9241 88.9181 37.318 87.0999 37.318C85.0696 37.318 83.2931 36.8294 81.7704 35.8521C80.2476 34.8673 79.062 33.4809 78.2136 31.693C77.3726 29.8976 76.9522 27.7877 76.9522 25.3635C76.9522 23.5377 77.1946 21.89 77.6795 20.4203C78.1643 18.9506 78.8499 17.693 79.7363 16.6476C80.6302 15.6021 81.687 14.8029 82.9067 14.2498C84.1264 13.6892 85.4749 13.4089 86.9522 13.4089C88.2249 13.4089 89.3878 13.6097 90.4408 14.0112C91.5014 14.4127 92.4333 14.9658 93.2363 15.6703C94.0469 16.3673 94.7098 17.1741 95.2249 18.0908C95.7476 18.9998 96.0999 19.9695 96.2817 20.9998H94.0999ZM101.716 36.9998V13.7271H115.216V15.6362H103.841V24.3976H114.5V26.3067H103.841V35.0908H115.444V36.9998H101.716ZM138.841 13.7271V36.9998H136.773L123.023 17.5112H122.841V36.9998H120.716V13.7271H122.773L136.569 33.2385H136.75V13.7271H138.841ZM144.108 36.9998V35.3976L157.029 15.6362H144.04V13.7271H159.563V15.3294L146.631 35.0908H159.677V36.9998H144.108ZM166.935 13.7271V36.9998H164.81V13.7271H166.935ZM173.157 36.9998H170.929L179.395 13.7271H181.668L190.134 36.9998H187.907L180.611 16.4885H180.452L173.157 36.9998ZM174.759 28.0794H186.304V29.9885H174.759V28.0794Z" fill="white"/>
</svg>
