<svg width="25" height="25" viewBox="0 0 25 25" fill="none" xmlns="http://www.w3.org/2000/svg">
<path d="M17.1463 0H7.02042C2.62208 0 0 2.62208 0 7.02042V17.1342C0 21.5446 2.62208 24.1667 7.02042 24.1667H17.1342C21.5325 24.1667 24.1546 21.5446 24.1546 17.1462V7.02042C24.1667 2.62208 21.5446 0 17.1463 0ZM16.1433 14.8625C16.4938 15.2129 16.4938 15.7929 16.1433 16.1433C15.9621 16.3246 15.7325 16.4092 15.5029 16.4092C15.2733 16.4092 15.0438 16.3246 14.8625 16.1433L12.0833 13.3642L9.30417 16.1433C9.12292 16.3246 8.89333 16.4092 8.66375 16.4092C8.43417 16.4092 8.20458 16.3246 8.02333 16.1433C7.67292 15.7929 7.67292 15.2129 8.02333 14.8625L10.8025 12.0833L8.02333 9.30417C7.67292 8.95375 7.67292 8.37375 8.02333 8.02333C8.37375 7.67292 8.95375 7.67292 9.30417 8.02333L12.0833 10.8025L14.8625 8.02333C15.2129 7.67292 15.7929 7.67292 16.1433 8.02333C16.4938 8.37375 16.4938 8.95375 16.1433 9.30417L13.3642 12.0833L16.1433 14.8625Z" fill="#FF8400"/>
</svg>
